<svg width="1538" height="248" viewBox="0 0 1538 248" fill="none" xmlns="http://www.w3.org/2000/svg">
<rect y="11" width="220" height="220" rx="20" fill="black"/>
<path d="M39 123.968C39.0921 147.068 57.7276 166 80.6205 166C103.57 166 122.24 147.145 122.24 123.968V118.034C122.24 108.49 129.928 100.725 139.378 100.725C148.829 100.725 156.517 108.49 156.517 118.034C156.517 120.765 158.709 122.979 161.413 122.979H176.103C178.809 122.979 181 120.765 181 118.034C181 94.8566 162.33 76 139.379 76C116.43 76 97.7589 94.8566 97.7589 118.034V123.968C97.7589 133.513 90.0702 141.275 80.6219 141.275C71.1722 141.275 63.4835 133.513 63.4835 123.968C63.4835 121.237 61.2908 119.022 58.5868 119.022H43.8967C41.1927 119.024 39 121.237 39 123.968Z" fill="white"/>
<path d="M280.785 98.9531C280.785 93.1589 281.892 87.7227 284.105 82.6445C286.319 77.5664 289.314 73.1393 293.09 69.3633C296.931 65.5221 301.391 62.4948 306.469 60.2812C311.547 58.0677 316.983 56.9609 322.777 56.9609H387.035V84.9883H322.777C320.824 84.9883 319.001 85.3464 317.309 86.0625C315.616 86.7786 314.118 87.7878 312.816 89.0898C311.579 90.3268 310.603 91.7917 309.887 93.4844C309.171 95.1771 308.812 97 308.812 98.9531C308.812 100.906 309.171 102.762 309.887 104.52C310.603 106.212 311.579 107.71 312.816 109.012C314.118 110.249 315.616 111.225 317.309 111.941C319.001 112.658 320.824 113.016 322.777 113.016H350.805C356.599 113.016 362.035 114.122 367.113 116.336C372.257 118.484 376.716 121.479 380.492 125.32C384.333 129.096 387.328 133.556 389.477 138.699C391.69 143.777 392.797 149.214 392.797 155.008C392.797 160.802 391.69 166.238 389.477 171.316C387.328 176.395 384.333 180.854 380.492 184.695C376.716 188.471 372.257 191.466 367.113 193.68C362.035 195.893 356.599 197 350.805 197H288.598V168.973H350.805C352.758 168.973 354.581 168.615 356.273 167.898C357.966 167.182 359.431 166.206 360.668 164.969C361.97 163.667 362.979 162.169 363.695 160.477C364.411 158.784 364.77 156.961 364.77 155.008C364.77 153.055 364.411 151.232 363.695 149.539C362.979 147.846 361.97 146.382 360.668 145.145C359.431 143.842 357.966 142.833 356.273 142.117C354.581 141.401 352.758 141.043 350.805 141.043H322.777C316.983 141.043 311.547 139.936 306.469 137.723C301.391 135.509 296.931 132.514 293.09 128.738C289.314 124.897 286.319 120.438 284.105 115.359C281.892 110.216 280.785 104.747 280.785 98.9531ZM439.281 197H411.254V56.9609H439.281V113.016H495.238V56.9609H523.266V197H495.238V141.043H439.281V197ZM577.367 197H549.34V56.9609H577.367V197ZM715.453 197H685.473L631.469 104.812V197H603.441V56.9609H633.422L687.426 149.246V56.9609H715.453V197ZM856.566 141.043C856.566 148.79 855.102 156.082 852.172 162.918C849.242 169.689 845.238 175.613 840.16 180.691C835.147 185.704 829.223 189.676 822.387 192.605C815.616 195.535 808.357 197 800.609 197C795.922 197 791.234 196.414 786.547 195.242V165.164C788.63 166.401 790.876 167.345 793.285 167.996C795.694 168.647 798.135 168.973 800.609 168.973C804.451 168.973 808.064 168.257 811.449 166.824C814.9 165.327 817.895 163.309 820.434 160.77C822.973 158.23 824.958 155.268 826.391 151.883C827.888 148.497 828.637 144.884 828.637 141.043V56.9609H856.566V141.043ZM991.43 141.043C991.43 148.79 989.965 156.082 987.035 162.918C984.105 169.689 980.102 175.613 975.023 180.691C969.945 185.704 963.988 189.676 957.152 192.605C950.382 195.535 943.122 197 935.375 197C927.628 197 920.336 195.535 913.5 192.605C906.729 189.676 900.805 185.704 895.727 180.691C890.714 175.613 886.742 169.689 883.812 162.918C880.883 156.082 879.418 148.79 879.418 141.043V56.9609H907.348V141.043C907.348 144.884 908.064 148.497 909.496 151.883C910.993 155.268 913.012 158.23 915.551 160.77C918.09 163.309 921.052 165.327 924.438 166.824C927.888 168.257 931.534 168.973 935.375 168.973C939.216 168.973 942.829 168.257 946.215 166.824C949.665 165.327 952.66 163.309 955.199 160.77C957.738 158.23 959.724 155.268 961.156 151.883C962.654 148.497 963.402 144.884 963.402 141.043V56.9609H991.43V141.043ZM1043.77 197H1015.75V56.9609H1043.77V113.016H1099.73V56.9609H1127.76V197H1099.73V141.043H1043.77V197ZM1216.82 197H1188.89V153.152C1182.71 151.59 1177.01 149.083 1171.8 145.633C1166.66 142.182 1162.23 138.081 1158.52 133.328C1154.81 128.51 1151.91 123.204 1149.83 117.41C1147.81 111.551 1146.8 105.398 1146.8 98.9531V56.9609H1174.83V98.9531C1174.83 102.794 1175.54 106.44 1176.98 109.891C1178.47 113.276 1180.49 116.238 1183.03 118.777C1185.57 121.316 1188.53 123.335 1191.92 124.832C1195.37 126.264 1199.01 126.98 1202.86 126.98C1206.7 126.98 1210.31 126.264 1213.7 124.832C1217.15 123.335 1220.14 121.316 1222.68 118.777C1225.22 116.238 1227.2 113.276 1228.64 109.891C1230.13 106.44 1230.88 102.794 1230.88 98.9531V56.9609H1258.81V98.9531C1258.81 105.398 1257.77 111.551 1255.69 117.41C1253.67 123.204 1250.8 128.51 1247.09 133.328C1243.38 138.081 1238.96 142.182 1233.81 145.633C1228.67 149.083 1223.01 151.59 1216.82 153.152V197ZM1388.3 141.043C1388.3 148.79 1386.84 156.082 1383.91 162.918C1380.98 169.689 1376.98 175.613 1371.9 180.691C1366.82 185.704 1360.86 189.676 1354.03 192.605C1347.26 195.535 1340 197 1332.25 197C1324.5 197 1317.21 195.535 1310.38 192.605C1303.6 189.676 1297.68 185.704 1292.6 180.691C1287.59 175.613 1283.62 169.689 1280.69 162.918C1277.76 156.082 1276.29 148.79 1276.29 141.043V56.9609H1304.22V141.043C1304.22 144.884 1304.94 148.497 1306.37 151.883C1307.87 155.268 1309.89 158.23 1312.43 160.77C1314.96 163.309 1317.93 165.327 1321.31 166.824C1324.76 168.257 1328.41 168.973 1332.25 168.973C1336.09 168.973 1339.7 168.257 1343.09 166.824C1346.54 165.327 1349.54 163.309 1352.07 160.77C1354.61 158.23 1356.6 155.268 1358.03 151.883C1359.53 148.497 1360.28 144.884 1360.28 141.043V56.9609H1388.3V141.043ZM1524.63 197H1494.65L1440.65 104.812V197H1412.62V56.9609H1442.6L1496.61 149.246V56.9609H1524.63V197Z" fill="black"/>
</svg>
